<svg width="46" height="46" viewBox="0 0 46 46" fill="none" xmlns="http://www.w3.org/2000/svg">
<path opacity="0.35" d="M23.9007 45.08C23.6339 45.08 23.3671 45.0441 23.1076 44.9733L10.3463 41.4304C9.15353 41.0992 8.27861 40.0485 8.16821 38.8153L5.32587 6.93541C5.25227 6.10143 5.53333 5.26975 6.09729 4.65289C6.66309 4.03419 7.46717 3.67999 8.30437 3.67999H39.5361C40.3737 3.67999 41.1778 4.03465 41.7431 4.65289C42.3066 5.26883 42.5882 6.10051 42.5146 6.93403L39.6685 38.8102C39.5581 40.0444 38.6818 41.095 37.4886 41.4258L24.6992 44.9719C24.437 45.0437 24.1693 45.08 23.9007 45.08Z" fill="black"/>
<path d="M22.9806 44.16C22.7138 44.16 22.447 44.1241 22.1876 44.0533L9.42626 40.5104C8.23348 40.1792 7.35856 39.1285 7.24816 37.8953L4.40582 6.01543C4.33222 5.18145 4.61328 4.34977 5.17724 3.73291C5.74304 3.11421 6.54712 2.76001 7.38432 2.76001H38.616C39.4537 2.76001 40.2578 3.11467 40.8231 3.73291C41.3866 4.34885 41.6681 5.18053 41.5945 6.01405L38.7485 37.8902C38.6381 39.1244 37.7618 40.175 36.5686 40.5058L23.7792 44.0519C23.517 44.1237 23.2493 44.16 22.9806 44.16Z" fill="#F2F2F2"/>
<path d="M38.6156 5.75L35.7705 37.6243L22.9807 41.17L10.2263 37.6294L7.3844 5.75H38.6156Z" fill="#2B59A1"/>
<path d="M22.9806 41.86C22.9185 41.86 22.8564 41.8513 22.7962 41.8347L10.0418 38.2945C9.76484 38.2177 9.56474 37.9776 9.53898 37.691L6.69664 5.81164C6.67962 5.6189 6.74448 5.42754 6.87512 5.28448C7.00576 5.14142 7.19068 5.06 7.38434 5.06H38.616C38.8097 5.06 38.9942 5.14142 39.1248 5.28448C39.2554 5.42754 39.3203 5.61844 39.3033 5.81164L36.4577 37.686C36.432 37.9721 36.2319 38.2127 35.9545 38.2895L23.1646 41.8356C23.1048 41.8517 23.0427 41.86 22.9806 41.86ZM10.8716 37.0921L22.9806 40.4542L35.1256 37.087L37.8616 6.44H8.13828L10.8716 37.0921Z" fill="#40396E"/>
<path d="M33.3348 35.5948L35.7747 8.26019H23V38.4597L33.3348 35.5948Z" fill="#2785BD"/>
<path d="M23 20.2202L23.46 22.0602L23 23.9002H14.2324L13.9058 20.2202H23Z" fill="#D9EEFF"/>
<path d="M23 12.4002L23.46 14.2402L23 16.0802H13.5428L13.2112 12.4002H23Z" fill="#D9EEFF"/>
<path d="M23.4601 32.1802L23.0001 34.4061L14.9731 32.1848L14.4395 26.2002H18.3633L18.6301 29.1626L23.0001 30.3402L23.4601 32.1802Z" fill="#D9EEFF"/>
<path d="M23 12.4002V16.0802H28.5058L28.1346 20.2202H23C22.9959 20.2193 22.9964 23.9002 22.9964 23.9002H27.8195L27.347 29.1626L23 30.3402V34.4066L31.004 32.1848L31.0592 31.5224L31.9792 21.2322L32.0758 20.1788L32.7658 12.4002H23Z" fill="#F2F2F2"/>
</svg>
