<svg width="45" height="46" viewBox="0 0 45 46" fill="none" xmlns="http://www.w3.org/2000/svg">
<path d="M38.4375 4.79169H6.5625L9.375 37.375L22.5 41.2084L35.625 37.375L38.4375 4.79169Z" fill="#E65100"/>
<path d="M22.5 7.66669V38.2375L33 35.1709L35.3438 7.66669H22.5Z" fill="#FF6D00"/>
<path d="M22.5 23.9583V20.125H30.5625L29.9062 31.1458L22.5 33.6375V29.6125L26.3438 28.2708L26.625 23.9583H22.5ZM30.8438 16.2916L31.125 12.4583H22.5V16.2916H30.8438Z" fill="white"/>
<path d="M23.5432 29.6125V33.6375L15.2313 31.1458L14.8105 25.875H19.019L19.2294 28.2708L23.5432 29.6125ZM18.3877 16.2916H23.5432V12.4583H13.9688L14.7052 23.9583H23.5432V20.125H18.7034L18.3877 16.2916Z" fill="#EEEEEE"/>
</svg>
