<svg width="40" height="40" viewBox="0 0 37 36" fill="none" xmlns="http://www.w3.org/2000/svg">
<path d="M26.2215 31.4925L10.8048 31.5067C7.41312 31.5097 4.63581 28.8127 4.63196 25.5127L4.61731 10.5127C4.61423 7.21275 7.38615 4.5105 10.7778 4.50675L26.1945 4.4925C29.5861 4.4895 32.3635 7.1865 32.3673 10.4865L32.382 25.4865C32.3858 28.7872 29.6131 31.4895 26.2215 31.4925Z" fill="url(#paint0_radial_14_10)"/>
<path d="M26.2215 31.4925L10.8048 31.5067C7.41312 31.5097 4.63581 28.8127 4.63196 25.5127L4.61731 10.5127C4.61423 7.21275 7.38615 4.5105 10.7778 4.50675L26.1945 4.4925C29.5861 4.4895 32.3635 7.1865 32.3673 10.4865L32.382 25.4865C32.3858 28.7872 29.6131 31.4895 26.2215 31.4925Z" fill="url(#paint1_radial_14_10)"/>
<path d="M18.5 23.25C15.5253 23.25 13.1041 20.895 13.1041 18C13.1041 15.105 15.5253 12.75 18.5 12.75C21.4746 12.75 23.8958 15.105 23.8958 18C23.8958 20.895 21.4746 23.25 18.5 23.25ZM18.5 14.25C16.3748 14.25 14.6458 15.9323 14.6458 18C14.6458 20.0677 16.3748 21.75 18.5 21.75C20.6251 21.75 22.3541 20.0677 22.3541 18C22.3541 15.9323 20.6251 14.25 18.5 14.25Z" fill="white"/>
<path d="M24.2812 13.5C24.9198 13.5 25.4375 12.9963 25.4375 12.375C25.4375 11.7537 24.9198 11.25 24.2812 11.25C23.6427 11.25 23.125 11.7537 23.125 12.375C23.125 12.9963 23.6427 13.5 24.2812 13.5Z" fill="white"/>
<path d="M23.125 27.75H13.875C10.9003 27.75 8.47913 25.395 8.47913 22.5V13.5C8.47913 10.605 10.9003 8.25 13.875 8.25H23.125C26.0996 8.25 28.5208 10.605 28.5208 13.5V22.5C28.5208 25.395 26.0996 27.75 23.125 27.75ZM13.875 9.75C11.7498 9.75 10.0208 11.4323 10.0208 13.5V22.5C10.0208 24.5677 11.7498 26.25 13.875 26.25H23.125C25.2501 26.25 26.9791 24.5677 26.9791 22.5V13.5C26.9791 11.4323 25.2501 9.75 23.125 9.75H13.875Z" fill="white"/>
<defs>
<radialGradient id="paint0_radial_14_10" cx="0" cy="0" r="1" gradientUnits="userSpaceOnUse" gradientTransform="translate(14.9388 31.5262) scale(34.6096 33.6742)">
<stop stop-color="#FFDD55"/>
<stop offset="0.328" stop-color="#FF543F"/>
<stop offset="0.348" stop-color="#FC5245"/>
<stop offset="0.504" stop-color="#E64771"/>
<stop offset="0.643" stop-color="#D53E91"/>
<stop offset="0.761" stop-color="#CC39A4"/>
<stop offset="0.841" stop-color="#C837AB"/>
</radialGradient>
<radialGradient id="paint1_radial_14_10" cx="0" cy="0" r="1" gradientUnits="userSpaceOnUse" gradientTransform="translate(9.08506 4.15522) scale(22.9809 14.8983)">
<stop stop-color="#4168C9"/>
<stop offset="0.999" stop-color="#4168C9" stop-opacity="0"/>
</radialGradient>
</defs>
</svg>
