<svg width="46" height="45" viewBox="0 0 46 45" fill="none" xmlns="http://www.w3.org/2000/svg">
<g clip-path="url(#clip0_7_26)">
<path d="M23 32.5125C9.8877 32.5125 0 28.3162 0 22.5C0 16.6838 9.8877 12.375 23 12.375C36.1123 12.375 46 16.6838 46 22.5C46 28.3162 36.1123 32.5125 23 32.5125ZM23 15.6735C11.8116 15.6735 3.30625 19.3477 3.30625 22.5709C3.30625 25.794 11.8116 29.3265 23 29.3265C34.1884 29.3265 42.6937 25.6523 42.6937 22.4291C42.6937 19.206 34.1884 15.6735 23 15.6735Z" fill="#4E7AB5"/>
<path d="M14.2623 42.75C13.1917 42.75 12.2142 42.507 11.3551 42.0277C9.95211 41.2436 8.94586 39.8587 8.44331 38.0205C7.12541 33.2032 9.25176 25.1032 13.8633 17.3835C19.274 8.33286 26.4581 2.25336 31.7389 2.25336C32.8084 2.25336 33.7859 2.49636 34.6449 2.97561C36.0456 3.75748 37.053 5.14123 37.5556 6.97836C38.8746 11.7956 36.7471 19.8967 32.1333 27.6165C26.7272 36.6682 19.5443 42.75 14.2623 42.75ZM31.7389 5.62836C28.4177 5.62836 22.0685 10.3455 16.8418 19.0867C12.1003 27.0247 10.71 33.6094 11.7772 37.1475C12.0658 38.1026 12.4729 38.7652 13.0663 39.096C15.7815 40.6125 23.1967 35.8897 29.156 25.9144C33.8997 17.9752 35.435 11.5312 34.2229 7.85248C33.9112 6.90636 33.5283 6.23811 32.936 5.90848C32.5991 5.71948 32.2069 5.62836 31.7389 5.62836Z" fill="#4E7AB5"/>
<path d="M31.7389 42.7466C26.4523 42.7455 19.2694 36.666 13.8633 27.6165C9.25176 19.8967 7.12541 11.7956 8.44331 6.9795C8.94586 5.14125 9.95211 3.75637 11.354 2.97337C12.2142 2.493 13.1917 2.25 14.26 2.25C19.5443 2.25 26.726 8.33175 32.1333 17.3835C36.746 25.1021 38.8723 33.2033 37.5544 38.0216C37.0507 39.8587 36.0445 41.2425 34.6449 42.0244C33.7859 42.5036 32.8072 42.7466 31.7389 42.7466ZM14.26 5.625C13.792 5.625 13.401 5.71725 13.064 5.904C12.4718 6.23475 12.0589 6.89512 11.776 7.8525C10.7088 11.4615 12.0992 17.9764 16.8406 25.9144C22.0628 34.6545 28.4131 39.3716 31.7377 39.3716C32.2069 39.3716 32.5979 39.2794 32.9349 39.0915C33.526 38.763 33.9503 38.106 34.2206 37.1475C35.2176 33.6082 33.8974 27.0225 29.1548 19.0856C23.9327 10.3433 17.5835 5.625 14.26 5.625Z" fill="#4E7AB5"/>
<path d="M27.025 22.5C27.025 24.6769 25.2252 26.4375 23 26.4375C20.7747 26.4375 18.975 24.6769 18.975 22.5C18.975 20.3231 20.7747 18.5625 23 18.5625C25.2252 18.5625 27.025 20.3231 27.025 22.5Z" fill="#8BB7F0"/>
<path d="M23 27C20.4631 27 18.4 24.9818 18.4 22.5C18.4 20.0182 20.4631 18 23 18C25.5369 18 27.6 20.0182 27.6 22.5C27.6 24.9818 25.5369 27 23 27ZM23 19.125C21.0979 19.125 19.55 20.6393 19.55 22.5C19.55 24.3608 21.0979 25.875 23 25.875C24.9021 25.875 26.45 24.3608 26.45 22.5C26.45 20.6393 24.9021 19.125 23 19.125Z" fill="#4E7AB5"/>
<path d="M23 31.5765C10.7479 31.5765 1.15002 27.5895 1.15002 22.5C1.15002 17.4105 10.7479 13.4235 23 13.4235C35.2521 13.4235 44.85 17.4105 44.85 22.5C44.85 27.5895 35.2521 31.5765 23 31.5765ZM23 14.5485C11.7795 14.5485 2.30002 18.1901 2.30002 22.5C2.30002 26.8099 11.7795 30.4515 23 30.4515C34.2206 30.4515 43.7 26.811 43.7 22.5C43.7 18.189 34.2206 14.5485 23 14.5485Z" fill="#8BB7F0"/>
<path d="M14.2623 41.625C13.394 41.625 12.6086 41.4315 11.9243 41.0501C10.7789 40.41 9.982 39.2929 9.55305 37.7291C8.3099 33.1875 10.3914 25.4239 14.8545 17.9505C19.9858 9.37123 26.9284 3.37836 31.7389 3.37836C32.606 3.37836 33.3926 3.57186 34.0757 3.95323C35.2199 4.59223 36.0168 5.70823 36.4458 7.26973C37.6889 11.8114 35.6075 19.575 31.142 27.0495C26.0141 35.631 19.0739 41.625 14.2623 41.625ZM31.7389 4.50336C27.3873 4.50336 20.7046 10.3972 15.8493 18.5186C11.6 25.6342 9.51625 33.237 10.6651 37.4389C11.0112 38.7022 11.6265 39.5876 12.4959 40.0736C13.003 40.356 13.5964 40.5 14.2611 40.5C18.6139 40.5 25.2954 34.605 30.1473 26.4814C34.3988 19.3646 36.4838 11.7607 35.3326 7.56111C34.9876 6.29998 34.3724 5.41461 33.5041 4.93086C32.997 4.64736 32.4036 4.50336 31.7389 4.50336Z" fill="#8BB7F0"/>
<path d="M31.7389 41.6216C26.9238 41.6205 19.9813 35.6288 14.8558 27.0495C10.3915 19.5761 8.3111 11.8125 9.55425 7.27088C9.98205 5.70712 10.779 4.59 11.9255 3.94987C12.6086 3.5685 13.3941 3.375 14.26 3.375C19.0728 3.375 26.0142 9.369 31.1409 17.9505C35.6063 25.4228 37.6867 33.1864 36.4424 37.7303C36.0157 39.2929 35.2188 40.4089 34.0745 41.0468C33.3914 41.4281 32.606 41.6216 31.7389 41.6216ZM14.26 4.5C13.5965 4.5 13.0019 4.644 12.4948 4.92638C11.6254 5.41238 11.0101 6.29775 10.664 7.56113C9.51515 11.7619 11.5989 19.3658 15.8482 26.4814C20.7 34.6016 27.3839 40.4955 31.7389 40.4966C32.4036 40.4966 32.9981 40.3526 33.5053 40.0691C34.3724 39.5854 34.9876 38.7 35.3326 37.4389C36.4826 33.237 34.3988 25.6331 30.1484 18.5186C25.2954 10.3961 18.6151 4.5 14.26 4.5Z" fill="#8BB7F0"/>
</g>
<defs>
<clipPath id="clip0_7_26">
<rect width="46" height="45" fill="white"/>
</clipPath>
</defs>
</svg>
