<svg width="40" height="40" viewBox="0 0 35 36" fill="none" xmlns="http://www.w3.org/2000/svg">
<path d="M3.54956 32.4773L5.51394 25.101C4.30206 22.9425 3.66477 20.493 3.6655 17.9843C3.66914 10.1355 9.87873 3.75 17.5102 3.75C21.2136 3.7515 24.6888 5.23425 27.3029 7.9245C29.9162 10.6155 31.3556 14.1915 31.3541 17.9955C31.3512 25.8442 25.1402 32.2305 17.5102 32.2305H17.5044C15.1878 32.2297 12.9106 31.632 10.8886 30.4972L3.54956 32.4773Z" fill="white"/>
<path d="M3.54957 32.8522C3.45332 32.8522 3.35998 32.8132 3.29071 32.7412C3.19957 32.646 3.16384 32.5072 3.19811 32.379L5.12238 25.152C3.92946 22.9725 3.30019 20.4975 3.30165 17.985C3.30457 9.9285 9.67821 3.375 17.5102 3.375C21.3092 3.3765 24.8784 4.89825 27.561 7.65975C30.2436 10.422 31.7202 14.0925 31.7187 17.9955C31.7158 26.0512 25.3414 32.6055 17.5102 32.6055C15.1849 32.6047 12.8844 32.0145 10.8427 30.8977L3.64217 32.8395C3.61155 32.8485 3.58092 32.8522 3.54957 32.8522Z" fill="white"/>
<path d="M17.5102 3.75C21.2136 3.7515 24.6888 5.23425 27.3029 7.9245C29.9162 10.6155 31.3556 14.1915 31.3541 17.9955C31.3512 25.8442 25.1402 32.2305 17.5102 32.2305H17.5043C15.1878 32.2297 12.9106 31.632 10.8886 30.4972L3.54953 32.4773L5.51391 25.101C4.30203 22.9425 3.66474 20.493 3.66547 17.9843C3.66912 10.1355 9.8787 3.75 17.5102 3.75ZM17.5102 3C9.47766 3 2.93995 9.7215 2.93631 17.9843C2.93558 20.5095 3.55537 22.998 4.73078 25.2008L2.84589 32.28C2.77735 32.5388 2.84735 32.8148 3.0311 33.0052C3.16964 33.1493 3.35703 33.228 3.54953 33.228C3.61151 33.228 3.67349 33.2197 3.73474 33.2033L10.7982 31.2982C12.8603 32.3993 15.1717 32.9805 17.5043 32.9812C25.5427 32.9812 32.0804 26.259 32.084 17.9963C32.0855 13.992 30.571 10.227 27.8198 7.395C25.0672 4.56225 21.4061 3.0015 17.5102 3Z" fill="#CFD8DC"/>
<path d="M25.6491 9.62401C23.4762 7.38751 20.588 6.15526 17.5138 6.15451C11.1671 6.15451 6.00536 11.4615 6.00244 17.985C6.00171 20.2208 6.60984 22.3973 7.76192 24.282L8.03609 24.7298L6.87307 29.0955L11.2284 27.921L11.6491 28.1775C13.4151 29.256 15.4408 29.826 17.5058 29.8268H17.5101C23.8524 29.8268 29.0142 24.519 29.0164 17.9948C29.0171 14.8335 27.822 11.8605 25.6491 9.62401Z" fill="#40C351"/>
<path fill-rule="evenodd" clip-rule="evenodd" d="M14.0751 11.4233C13.8162 10.8308 13.5435 10.8188 13.2964 10.8083C13.0944 10.7993 12.864 10.8 12.6335 10.8C12.4031 10.8 12.0283 10.8893 11.7111 11.2455C11.394 11.6018 10.5 12.462 10.5 14.2125C10.5 15.963 11.7396 17.655 11.9124 17.892C12.0852 18.129 14.3055 21.8363 17.8216 23.2628C20.7433 24.4478 21.3383 24.2123 21.9727 24.153C22.6071 24.0938 24.0195 23.2928 24.3075 22.4618C24.5955 21.6308 24.5955 20.919 24.5095 20.7705C24.4227 20.622 24.1923 20.5335 23.8467 20.355C23.501 20.1765 21.7999 19.3163 21.4827 19.1978C21.1655 19.0793 20.9351 19.02 20.704 19.3763C20.4735 19.7318 19.8107 20.5335 19.6088 20.7705C19.4068 21.0083 19.2048 21.0383 18.8592 20.8598C18.5135 20.6813 17.3994 20.3063 16.0774 19.0943C15.0493 18.1515 14.3551 16.9868 14.1531 16.6305C13.9511 16.275 14.1313 16.0823 14.3048 15.9045C14.4601 15.7448 14.6504 15.489 14.824 15.2813C14.9968 15.0735 15.0544 14.925 15.1696 14.688C15.2848 14.4503 15.2272 14.2425 15.1404 14.0648C15.0551 13.8863 14.3828 12.1268 14.0751 11.4233Z" fill="white"/>
</svg>
